<svg width="35" height="40" viewBox="0 0 35 40" fill="none" xmlns="http://www.w3.org/2000/svg">
<path d="M12.5 2.5V5H22.5V2.5C22.5 1.11953 23.6172 0 25 0C26.3828 0 27.5 1.11953 27.5 2.5V5H31.25C33.3203 5 35 6.67891 35 8.75V12.5H0V8.75C0 6.67891 1.67891 5 3.75 5H7.5V2.5C7.5 1.11953 8.61719 0 10 0C11.3828 0 12.5 1.11953 12.5 2.5ZM0 15H35V36.25C35 38.3203 33.3203 40 31.25 40H3.75C1.67891 40 0 38.3203 0 36.25V15ZM5 23.75C5 24.4375 5.55937 25 6.25 25H8.75C9.4375 25 10 24.4375 10 23.75V21.25C10 20.5625 9.4375 20 8.75 20H6.25C5.55937 20 5 20.5625 5 21.25V23.75ZM15 23.75C15 24.4375 15.5625 25 16.25 25H18.75C19.4375 25 20 24.4375 20 23.75V21.25C20 20.5625 19.4375 20 18.75 20H16.25C15.5625 20 15 20.5625 15 21.25V23.75ZM26.25 20C25.5625 20 25 20.5625 25 21.25V23.75C25 24.4375 25.5625 25 26.25 25H28.75C29.4375 25 30 24.4375 30 23.75V21.25C30 20.5625 29.4375 20 28.75 20H26.25ZM5 33.75C5 34.4375 5.55937 35 6.25 35H8.75C9.4375 35 10 34.4375 10 33.75V31.25C10 30.5625 9.4375 30 8.75 30H6.25C5.55937 30 5 30.5625 5 31.25V33.75ZM16.25 30C15.5625 30 15 30.5625 15 31.25V33.75C15 34.4375 15.5625 35 16.25 35H18.75C19.4375 35 20 34.4375 20 33.75V31.25C20 30.5625 19.4375 30 18.75 30H16.25ZM25 33.75C25 34.4375 25.5625 35 26.25 35H28.75C29.4375 35 30 34.4375 30 33.75V31.25C30 30.5625 29.4375 30 28.75 30H26.25C25.5625 30 25 30.5625 25 31.25V33.75Z" fill="#2FAC68"/>
</svg>
