<svg width="40" height="40" viewBox="0 0 40 40" fill="none" xmlns="http://www.w3.org/2000/svg">
<g clip-path="url(#clip0_142_1059)">
<path opacity="0.2" d="M33.75 13.75V28.75C33.752 29.243 33.6565 29.7316 33.4687 30.1875C33.281 30.6434 33.0049 31.0576 32.6562 31.4063C32.3076 31.7549 31.8934 32.031 31.4375 32.2188C30.9816 32.4065 30.493 32.5021 30 32.5H9.99997C9.50694 32.5021 9.01837 32.4065 8.56247 32.2188C8.10656 32.031 7.69234 31.7549 7.34371 31.4063C6.99508 31.0576 6.71894 30.6434 6.53121 30.1875C6.34349 29.7316 6.2479 29.243 6.24997 28.75V13.75C6.24997 13.4185 6.38167 13.1005 6.61609 12.8661C6.85051 12.6317 7.16845 12.5 7.49997 12.5H32.5C32.8315 12.5 33.1494 12.6317 33.3839 12.8661C33.6183 13.1005 33.75 13.4185 33.75 13.75Z" fill="#FF96B7"/>
<path d="M13.75 7.5V2.5C13.75 2.16848 13.8817 1.85054 14.1161 1.61612C14.3505 1.3817 14.6685 1.25 15 1.25C15.3315 1.25 15.6495 1.3817 15.8839 1.61612C16.1183 1.85054 16.25 2.16848 16.25 2.5V7.5C16.25 7.83152 16.1183 8.14946 15.8839 8.38388C15.6495 8.6183 15.3315 8.75 15 8.75C14.6685 8.75 14.3505 8.6183 14.1161 8.38388C13.8817 8.14946 13.75 7.83152 13.75 7.5ZM20 8.75C20.3315 8.75 20.6495 8.6183 20.8839 8.38388C21.1183 8.14946 21.25 7.83152 21.25 7.5V2.5C21.25 2.16848 21.1183 1.85054 20.8839 1.61612C20.6495 1.3817 20.3315 1.25 20 1.25C19.6685 1.25 19.3505 1.3817 19.1161 1.61612C18.8817 1.85054 18.75 2.16848 18.75 2.5V7.5C18.75 7.83152 18.8817 8.14946 19.1161 8.38388C19.3505 8.6183 19.6685 8.75 20 8.75ZM25 8.75C25.3315 8.75 25.6495 8.6183 25.8839 8.38388C26.1183 8.14946 26.25 7.83152 26.25 7.5V2.5C26.25 2.16848 26.1183 1.85054 25.8839 1.61612C25.6495 1.3817 25.3315 1.25 25 1.25C24.6685 1.25 24.3505 1.3817 24.1161 1.61612C23.8817 1.85054 23.75 2.16848 23.75 2.5V7.5C23.75 7.83152 23.8817 8.14946 24.1161 8.38388C24.3505 8.6183 24.6685 8.75 25 8.75ZM39.5 16L35 19.375V28.75C34.9959 30.0748 34.4678 31.3442 33.531 32.281C32.5942 33.2178 31.3248 33.7459 30 33.75H10C8.67519 33.7459 7.40581 33.2178 6.46902 32.281C5.53223 31.3442 5.00413 30.0748 5 28.75V19.375L0.500005 16C0.234789 15.8011 0.0594523 15.505 0.0125682 15.1768C-0.0343159 14.8486 0.0510927 14.5152 0.250005 14.25C0.448917 13.9848 0.74504 13.8094 1.07323 13.7626C1.40142 13.7157 1.73479 13.8011 2.00001 14L5 16.25V13.75C5 13.087 5.2634 12.4511 5.73224 11.9822C6.20108 11.5134 6.83696 11.25 7.5 11.25H32.5C33.163 11.25 33.7989 11.5134 34.2678 11.9822C34.7366 12.4511 35 13.087 35 13.75V16.25L38 14C38.2652 13.8011 38.5986 13.7157 38.9268 13.7626C39.255 13.8094 39.5511 13.9848 39.75 14.25C39.9489 14.5152 40.0343 14.8486 39.9874 15.1768C39.9406 15.505 39.7652 15.8011 39.5 16ZM32.5 13.75H7.5V28.75C7.5 29.413 7.7634 30.0489 8.23224 30.5178C8.70108 30.9866 9.33696 31.25 10 31.25H30C30.663 31.25 31.2989 30.9866 31.7678 30.5178C32.2366 30.0489 32.5 29.413 32.5 28.75V13.75Z" fill="#2FAC68"/>
</g>
<defs>
<clipPath id="clip0_142_1059">
<rect width="40" height="40" fill="white"/>
</clipPath>
</defs>
</svg>
