<svg width="39" height="39" viewBox="0 0 39 39" fill="none" xmlns="http://www.w3.org/2000/svg">
<path d="M28.42 23.5441C28.42 25.2257 28.898 25.8963 30.148 25.8963C32.934 25.8963 34.708 22.343 34.708 16.4334C34.708 7.40095 28.132 3.07689 19.922 3.07689C11.476 3.07689 3.794 8.74621 3.794 19.4603C3.794 29.6939 10.514 35.2671 20.834 35.2671C24.338 35.2671 26.69 34.8828 30.288 33.6816L31.06 36.8987C27.508 38.0537 23.712 38.3881 20.786 38.3881C7.25 38.3881 0 30.9411 0 19.4583C0 7.8794 8.402 0 19.97 0C32.018 0 38.4 7.20677 38.4 16.0471C38.4 23.5421 36.05 29.2595 28.658 29.2595C25.296 29.2595 23.09 27.9142 22.802 24.9334C21.938 28.2485 19.634 29.2595 16.512 29.2595C12.336 29.2595 8.832 26.0385 8.832 19.5544C8.832 13.0202 11.906 8.98444 17.426 8.98444C20.354 8.98444 22.178 10.1375 22.99 11.9632L24.384 9.41684H28.416V23.5441H28.42ZM22.518 17.2022C22.518 14.5617 20.548 13.4546 18.916 13.4546C17.14 13.4546 15.174 14.894 15.174 19.124C15.174 22.4871 16.662 24.3609 18.916 24.3609C20.5 24.3609 22.518 23.3519 22.518 20.5653V17.2022Z" fill="white"/>
</svg>
